<svg width="3315" height="719" viewBox="0 0 3315 719" fill="none" xmlns="http://www.w3.org/2000/svg">
<g filter="url(#filter0_b_1_4)">
<path d="M456.4 60.2C459.4 57.2 461.2 56.6 461.8 58.4C463 59.6 462.4 62 460 65.6C454 74.6 448.6 85.1 443.8 97.1C439 108.5 433 121.7 425.8 136.7C418.6 151.1 409.3 167.9 397.9 187.1C386.5 205.7 371.2 227 352 251C327.4 281.6 301 310.7 272.8 338.3C245.2 365.9 217 392.3 188.2 417.5C186.4 418.7 183.4 421.4 179.2 425.6C175 429.2 172.3 430.4 171.1 429.2C169.9 428 170.5 425 172.9 420.2C175.9 415.4 178 412.1 179.2 410.3C184 403.1 190 394.7 197.2 385.1C205 374.9 213.1 364.7 221.5 354.5C229.9 344.3 238 334.7 245.8 325.7C254.2 316.7 261.7 308.9 268.3 302.3C271.9 298.7 279.1 290.3 289.9 277.1C301.3 263.9 313.9 248.6 327.7 231.2C342.1 213.2 356.5 194.3 370.9 174.5C385.9 154.7 398.8 136.7 409.6 120.5C403.6 124.1 394 132.5 380.8 145.7C367.6 158.9 352.3 174.8 334.9 193.4C318.1 211.4 300.4 230.9 281.8 251.9C263.2 272.9 245.5 293 228.7 312.2C212.5 331.4 197.8 348.5 184.6 363.5C172 377.9 163.3 388.1 158.5 394.1C131.5 425.9 106.9 460.4 84.7 497.6C62.5 534.8 46.3 572.3 36.1 610.1L21.7 627.2C22.3 605 25.6 582.5 31.6 559.7C38.2 536.9 46.3 514.4 55.9 492.2C66.1 469.4 77.8 447.5 91 426.5C104.8 405.5 119.8 385.7 136 367.1C169.6 328.7 205.3 291.8 243.1 256.4C281.5 220.4 315.7 184.7 345.7 149.3C334.3 151.7 323.2 153.2 312.4 153.8C301.6 154.4 290.5 154.4 279.1 153.8C257.5 152.6 235.9 150.5 214.3 147.5C193.3 143.9 172.6 140.9 152.2 138.5C131.8 136.1 112 135.2 92.8 135.8C74.2 135.8 56.5 138.5 39.7 143.9C37.3 145.1 36.1 144.8 36.1 143C36.1 140.6 37.3 138.8 39.7 137.6C57.1 123.8 75.7 115.4 95.5 112.4C115.9 109.4 136.9 108.8 158.5 110.6C180.1 112.4 202 115.4 224.2 119.6C246.4 123.8 268.3 126.2 289.9 126.8C318.1 128 347.2 123.8 377.2 114.2C407.2 104 433.6 86 456.4 60.2ZM241.3 440.9C222.1 463.7 201.4 486.5 179.2 509.3C157 531.5 136.6 551.6 118 569.6C130 567.8 142.6 566.9 155.8 566.9C169 566.3 181.9 566.3 194.5 566.9C207.1 566.9 218.8 567.2 229.6 567.8C240.4 568.4 249.4 568.7 256.6 568.7C277.6 569.9 299.2 572.6 321.4 576.8C343.6 580.4 363.1 583.7 379.9 586.7C385.9 587.9 388.6 589.7 388 592.1C387.4 593.3 386.2 594.2 384.4 594.8C382.6 594.8 380.8 595.1 379 595.7C346.6 602.9 314.2 605.3 281.8 602.9C249.4 600.5 216.4 598.1 182.8 595.7C162.4 594.5 141.4 593.6 119.8 593C98.2 592.4 75.4 596 51.4 603.8C49 605 47.8 605 47.8 603.8C52 594.2 57.1 583.7 63.1 572.3C69.1 560.9 75.1 550.4 81.1 540.8C87.1 531.2 92.2 523.4 96.4 517.4C101.2 511.4 104.5 509 106.3 510.2C106.9 510.8 106.9 512.9 106.3 516.5C105.7 519.5 104.5 523.4 102.7 528.2C101.5 532.4 100 536.6 98.2 540.8C96.4 544.4 95.2 547.1 94.6 548.9C92.2 553.7 89.8 558.8 87.4 564.2C85.6 569.6 83.2 574.7 80.2 579.5C83.2 578.3 86.2 577.4 89.2 576.8C92.2 575.6 95.8 574.4 100 573.2C126.4 530.6 156.4 490.4 190 452.6C223.6 414.2 258.7 375.5 295.3 336.5C318.1 311.3 340.9 285.8 363.7 260C387.1 234.2 408.7 205.1 428.5 172.7C429.7 169.7 430.3 168.2 430.3 168.2C430.9 167.6 431.5 167.6 432.1 168.2C433.9 170 434.2 172.7 433 176.3C430.6 194.3 421.3 215.6 405.1 240.2C389.5 264.8 371.5 289.7 351.1 314.9C331.3 340.1 310.9 364.1 289.9 386.9C269.5 409.1 253.3 427.1 241.3 440.9ZM444.7 603.8C447.1 602 448.9 601.4 450.1 602C451.3 602.6 450.7 604.4 448.3 607.4C433.3 626 417.7 640.4 401.5 650.6C385.9 660.8 369.7 668.3 352.9 673.1C336.1 677.9 319 680.9 301.6 682.1C284.8 682.7 268 683 251.2 683C227.8 683 204.4 682.1 181 680.3C157.6 678.5 135.4 677.3 114.4 676.7C93.4 675.5 73.9 675.5 55.9 676.7C37.9 677.3 22.3 679.7 9.1 683.9C7.9 684.5 6.1 684.8 3.7 684.8C1.3 685.4 1.6 684.5 4.6 682.1C17.8 668.3 34 659.6 53.2 656C73 651.8 94.3 650.3 117.1 651.5C140.5 652.1 164.2 654.2 188.2 657.8C212.8 661.4 236.5 663.5 259.3 664.1C289.9 665.3 321.1 661.7 352.9 653.3C385.3 644.9 415.9 628.4 444.7 603.8ZM289 30.5C308.2 31.7 327.4 34.4 346.6 38.6C366.4 42.2 384.1 45.2 399.7 47.6C405.7 48.8 408.7 50.3 408.7 52.1C408.7 53.3 407.5 54.2 405.1 54.8C403.3 55.4 401.5 56 399.7 56.6C370.3 63.2 340.9 65.6 311.5 63.8C282.1 61.4 252.4 58.1 222.4 53.8999C203.2 50.8999 183.7 48.8 163.9 47.6C144.1 46.4 123.7 48.5 102.7 53.8999C97.3 55.1 95.5 54.8 97.3 53C99.1 51.2 100.6 49.7 101.8 48.5C110.8 40.7 123.7 35.3 140.5 32.3C157.3 28.7 174.7 26.9 192.7 26.9C211.3 26.3 229.3 26.6 246.7 27.8C264.1 29 278.2 29.9 289 30.5ZM116.2 606.5C139.6 607.1 164.2 609.2 190 612.8C215.8 616.4 240.1 620.9 262.9 626.3C264.1 626.9 266.2 627.8 269.2 629C272.8 630.2 274.6 631.7 274.6 633.5C274.6 634.7 272.8 635.9 269.2 637.1C265.6 638.3 263.2 638.9 262 638.9C256.6 639.5 249.1 640.1 239.5 640.7C230.5 640.7 220.9 640.7 210.7 640.7C200.5 640.7 190.6 640.7 181 640.7C172 640.7 164.8 640.7 159.4 640.7C145.6 640.1 131.2 640.4 116.2 641.6C101.2 642.8 86.8 644.6 73 647C59.8 648.8 47.8 651.5 37 655.1C26.8 658.7 19.6 662.6 15.4 666.8C13 669.2 11.5 669.8 10.9 668.6C10.3 668 10.3 667.1 10.9 665.9C11.5 664.1 12.1 662.6 12.7 661.4C16.3 653 22 645.5 29.8 638.9C37.6 631.7 46.3 625.7 55.9 620.9C66.1 616.1 76.6 612.5 87.4 610.1C98.2 607.7 107.8 606.5 116.2 606.5ZM159.4 60.2C181 62.6 203.5 66.5 226.9 71.9C250.9 76.7 272.8 82.4 292.6 89C293.8 89.6 295.9 90.2 298.9 90.8C301.9 91.4 303.1 92.9 302.5 95.2999C302.5 96.5 301 97.7 298 98.9C295 99.5 292.9 99.8 291.7 99.8C286.9 100.4 280.9 101 273.7 101.6C267.1 101.6 259.9 101.6 252.1 101.6C244.9 101.6 237.7 101.6 230.5 101.6C223.9 101 217.9 100.4 212.5 99.8C202.3 99.2 189.4 98.6 173.8 98C158.8 97.4 143.5 97.4 127.9 98C112.3 98.6 97.6 100.1 83.8 102.5C70.6 104.9 60.4 108.8 53.2 114.2C52 115.4 51.1 116 50.5 116H48.7C48.1 114.8 48.1 113.6 48.7 112.4C49.3 110.6 49.9 109.4 50.5 108.8C56.5 99.8 64 92.3 73 86.3C82.6 79.7 92.5 74.3 102.7 70.1C112.9 65.9 122.8 63.2 132.4 61.9999C142.6 60.2 151.6 59.6 159.4 60.2ZM399.7 602.9C407.5 599.9 414.7 596.3 421.3 592.1C427.9 587.3 435.1 582.2 442.9 576.8C444.1 575.6 445.6 574.7 447.4 574.1C449.2 573.5 450.4 573.5 451 574.1C451.6 575.3 451 577.4 449.2 580.4C448 581.6 447.1 582.8 446.5 584C439.9 592.4 433.6 599.6 427.6 605.6C422.2 611 413.5 616.4 401.5 621.8C396.7 624.2 390.4 626.6 382.6 629C375.4 630.8 368.2 632.3 361 633.5C354.4 634.1 348.7 634.4 343.9 634.4C339.1 633.8 336.7 632.3 336.7 629.9C336.7 628.1 340.3 626 347.5 623.6C354.7 620.6 359.5 618.5 361.9 617.3C368.5 614.9 374.8 612.8 380.8 611C387.4 608.6 393.7 605.9 399.7 602.9ZM417.7 61.9999C424.9 57.8 431.5 53.6 437.5 49.3999C443.5 44.6 449.8 39.5 456.4 34.1C457 33.5 457.6 32.8999 458.2 32.3C459.4 31.7 460 32 460 33.1999C460 35.5999 459.4 38 458.2 40.4L457.3 42.2C452.5 50.6 447.7 57.5 442.9 62.9C438.1 68.3 430.3 74.3 419.5 80.9C414.7 83.3 409 85.7 402.4 88.1C396.4 90.5 390.4 92.3 384.4 93.5C378.4 94.7 373.3 95.2999 369.1 95.2999C364.9 95.2999 362.8 94.4 362.8 92.6C362.8 90.8 365.5 88.4 370.9 85.4C376.9 82.4 380.8 80.3 382.6 79.1C394.6 74.3 406.3 68.6 417.7 61.9999ZM948.306 278.9C948.306 306.5 945.606 335.9 940.206 367.1C935.406 397.7 927.606 428 916.806 458C906.606 488 893.706 516.5 878.106 543.5C862.506 570.5 843.906 594.5 822.306 615.5C801.306 635.9 777.306 652.4 750.306 665C723.306 677 693.606 683 661.206 683C631.206 683 605.106 674.3 582.906 656.9C561.306 638.9 543.606 615.5 529.806 586.7C516.606 557.9 507.306 524.9 501.906 487.7C497.106 450.5 496.506 412.7 500.106 374.3C503.706 335.9 511.206 298.1 522.606 260.9C534.606 223.7 550.806 190.7 571.206 161.9C591.606 133.1 616.206 110 645.006 92.6C673.806 74.6 706.806 65.6 744.006 65.6C773.406 65.6 798.006 72.2 817.806 85.4C837.606 98.6 853.506 115.4 865.506 135.8C878.106 156.2 887.106 179 892.506 204.2C897.906 228.8 900.606 252.8 900.606 276.2C900.606 304.4 898.206 332 893.406 359C888.606 385.4 880.206 411.2 868.206 436.4C864.606 444.8 862.506 447.8 861.906 445.4C861.906 442.4 862.506 438.2 863.706 432.8C867.906 411.2 871.506 389.9 874.506 368.9C878.106 347.3 879.906 325.4 879.906 303.2C879.906 282.2 877.806 259.4 873.606 234.8C869.406 210.2 862.206 187.4 852.006 166.4C841.806 145.4 827.706 128 809.706 114.2C791.706 99.8 768.906 92.6 741.306 92.6C717.906 92.6 696.006 97.1 675.606 106.1C655.206 115.1 636.606 127.1 619.806 142.1C603.606 157.1 589.206 174.8 576.606 195.2C564.006 215 553.206 235.7 544.206 257.3C537.006 275.3 531.006 298.1 526.206 325.7C521.406 352.7 518.706 381.2 518.106 411.2C517.506 441.2 519.306 471.5 523.506 502.1C527.706 532.7 535.506 560 546.906 584C558.306 608 573.306 627.8 591.906 643.4C610.506 658.4 633.906 665.9 662.106 665.9C691.506 665.9 719.406 657.8 745.806 641.6C772.206 624.8 795.906 604.1 816.906 579.5C838.506 554.3 856.806 527.6 871.806 499.4C886.806 470.6 897.606 443.9 904.206 419.3C910.206 397.7 914.706 373.7 917.706 347.3C921.306 320.3 922.206 293.3 920.406 266.3C919.206 238.7 915.006 212 907.806 186.2C901.206 160.4 891.006 137.6 877.206 117.8C863.406 97.4 845.706 81.2 824.106 69.2C803.106 56.6 777.306 50.3 746.706 50.3C701.106 50.3 661.806 61.7 628.806 84.5C595.806 107.3 568.506 136.1 546.906 170.9C525.906 205.7 510.306 244.1 500.106 286.1C489.906 328.1 484.806 368.3 484.806 406.7C484.806 424.7 486.006 443 488.406 461.6C490.806 479.6 492.606 494.6 493.806 506.6C494.406 511.4 493.806 514.1 492.006 514.7C490.806 514.7 489.306 512.3 487.506 507.5C485.106 499.7 483.006 490.7 481.206 480.5C479.406 469.7 477.606 458.6 475.806 447.2C474.606 435.2 473.406 423.5 472.206 412.1C471.606 400.1 471.306 389 471.306 378.8C471.306 336.8 476.706 294.8 487.506 252.8C498.906 210.2 516.006 172.1 538.806 138.5C561.606 104.9 590.406 77.6 625.206 56.6C660.606 35 702.306 24.2 750.306 24.2C786.306 24.2 816.906 32.3 842.106 48.5C867.306 64.7 887.706 85.4 903.306 110.6C919.506 135.2 930.906 162.5 937.506 192.5C944.706 222.5 948.306 251.3 948.306 278.9ZM863.706 287C863.706 312.8 860.706 340.1 854.706 368.9C848.706 397.1 839.706 425 827.706 452.6C816.306 479.6 802.206 505.1 785.406 529.1C768.606 552.5 749.406 572.6 727.806 589.4C717.606 597.2 706.506 603.8 694.506 609.2C683.106 614.6 670.506 617.3 656.706 617.3C644.706 617.3 634.506 614.9 626.106 610.1C618.306 604.7 611.406 597.5 605.406 588.5C600.606 581.9 599.106 578.6 600.906 578.6C602.706 578.6 606.006 581 610.806 585.8C616.206 590.6 621.606 594.8 627.006 598.4C632.406 602 639.606 603.8 648.606 603.8C665.406 603.8 681.306 598.1 696.306 586.7C711.906 574.7 724.806 562.7 735.006 550.7C750.606 533.9 764.406 515.3 776.406 494.9C788.406 473.9 798.306 452.3 806.106 430.1C814.506 407.3 820.806 384.5 825.006 361.7C829.206 338.3 831.306 315.2 831.306 292.4C831.306 277.4 829.806 260.9 826.806 242.9C824.406 224.9 819.306 208.1 811.506 192.5C804.306 176.3 794.106 162.8 780.906 152C768.306 141.2 751.806 135.8 731.406 135.8C709.206 135.8 689.406 140.6 672.006 150.2C654.606 159.8 639.006 172.1 625.206 187.1C611.406 201.5 598.806 218 587.406 236.6C576.606 254.6 566.406 272.3 556.806 289.7C555.006 293.3 553.506 295.4 552.306 296C551.706 296.6 551.406 296.3 551.406 295.1C550.806 293.9 550.806 292.1 551.406 289.7C558.006 267.5 567.006 245.6 578.406 224C589.806 202.4 603.306 183.2 618.906 166.4C635.106 149.6 653.106 136.1 672.906 125.9C692.706 115.1 714.306 109.7 737.706 109.7C759.906 109.7 779.106 115.7 795.306 127.7C811.506 139.7 824.406 154.7 834.006 172.7C844.206 190.1 851.706 209.3 856.506 230.3C861.306 250.7 863.706 269.6 863.706 287ZM700.806 638.9C687.006 646.1 672.306 649.7 656.706 649.7C635.106 649.7 616.506 643.7 600.906 631.7C585.306 619.7 572.106 605 561.306 587.6C551.106 570.2 543.606 551.3 538.806 530.9C534.006 510.5 531.606 491.6 531.606 474.2C531.606 470.6 531.906 465.2 532.506 458C533.106 450.8 533.706 443.9 534.306 437.3C535.506 430.1 536.706 423.8 537.906 418.4C539.706 413 541.806 410.3 544.206 410.3C546.606 410.3 547.506 415.1 546.906 424.7C546.906 433.7 547.506 446.6 548.706 463.4C549.306 476.6 552.006 493.1 556.806 512.9C561.606 532.7 568.506 551.9 577.506 570.5C586.506 588.5 597.606 604.1 610.806 617.3C624.006 630.5 639.306 637.1 656.706 637.1C671.706 637.1 685.206 635.9 697.206 633.5C703.206 632.3 707.706 631.7 710.706 631.7C713.706 631.7 710.406 634.1 700.806 638.9ZM1222.88 645.2C1244.48 641.6 1265.18 635 1284.98 625.4C1305.38 615.8 1323.68 603.5 1339.88 588.5C1341.08 587.9 1343.48 585.8 1347.08 582.2C1350.68 578.6 1353.08 577.4 1354.28 578.6C1355.48 579.8 1355.18 581.6 1353.38 584C1351.58 586.4 1350.08 588.5 1348.88 590.3C1336.88 607.7 1320.98 622.1 1301.18 633.5C1281.98 644.3 1261.88 653 1240.88 659.6C1223.48 664.4 1204.88 666.2 1185.08 665C1165.28 663.2 1146.68 658.1 1129.28 649.7C1123.88 647.3 1120.58 645.5 1119.38 644.3C1118.18 642.5 1118.18 641.3 1119.38 640.7C1120.58 640.1 1122.38 639.8 1124.78 639.8C1127.78 639.8 1130.48 640.1 1132.88 640.7C1139.48 641.9 1146.98 643.1 1155.38 644.3C1164.38 644.9 1173.08 645.5 1181.48 646.1C1190.48 646.1 1198.58 646.1 1205.78 646.1C1212.98 646.1 1218.68 645.8 1222.88 645.2ZM1102.28 380.6C1099.28 401.6 1097.78 422.3 1097.78 442.7C1097.78 462.5 1098.98 481.4 1101.38 499.4C1104.38 516.8 1108.58 532.4 1113.98 546.2C1119.98 560 1127.18 571.4 1135.58 580.4C1145.18 590 1156.88 597.5 1170.68 602.9C1185.08 607.7 1200.38 610.1 1216.58 610.1C1233.38 610.1 1250.78 607.7 1268.78 602.9C1287.38 598.1 1305.68 590.6 1323.68 580.4C1327.28 578 1329.68 577.4 1330.88 578.6C1332.08 579.8 1331.48 581.3 1329.08 583.1C1327.28 584.3 1325.48 585.5 1323.68 586.7C1308.08 598.7 1291.58 608.3 1274.18 615.5C1256.78 622.7 1239.08 627.2 1221.08 629C1203.68 630.8 1186.58 629.9 1169.78 626.3C1153.58 622.1 1138.88 614.6 1125.68 603.8C1113.08 593 1102.88 580.1 1095.08 565.1C1087.28 549.5 1081.28 532.7 1077.08 514.7C1073.48 496.1 1071.38 476.9 1070.78 457.1C1070.18 437.3 1070.78 417.8 1072.58 398.6C1074.98 368 1080.98 337.1 1090.58 305.9C1100.18 274.7 1112.78 245.9 1128.38 219.5C1144.58 193.1 1163.78 170 1185.98 150.2C1208.18 130.4 1233.08 116.6 1260.68 108.8C1274.48 105.2 1288.58 103.7 1302.98 104.3C1317.38 104.9 1330.58 107.6 1342.58 112.4C1355.18 117.2 1365.98 124.4 1374.98 134C1383.98 143 1389.98 154.1 1392.98 167.3C1395.98 181.7 1394.78 195.8 1389.38 209.6C1383.98 222.8 1376.48 234.5 1366.88 244.7C1357.28 254.3 1346.48 261.2 1334.48 265.4C1322.48 269.6 1311.08 269.6 1300.28 265.4C1299.68 265.4 1299.08 264.5 1298.48 262.7C1298.48 260.9 1299.68 260.3 1302.08 260.9C1309.28 262.1 1317.38 260.6 1326.38 256.4C1335.98 251.6 1344.38 245.3 1351.58 237.5C1359.38 229.7 1365.38 220.4 1369.58 209.6C1374.38 198.8 1375.88 187.7 1374.08 176.3C1372.28 167.9 1368.38 160.7 1362.38 154.7C1356.98 148.1 1349.78 143 1340.78 139.4C1331.78 135.2 1321.58 132.5 1310.18 131.3C1299.38 130.1 1287.98 130.7 1275.98 133.1C1253.18 137.3 1231.88 147.5 1212.08 163.7C1192.88 179.3 1175.78 198.5 1160.78 221.3C1145.78 244.1 1133.18 269.6 1122.98 297.8C1112.78 325.4 1105.88 353 1102.28 380.6ZM1173.38 678.5C1179.98 679.1 1186.58 679.4 1193.18 679.4C1200.38 679.4 1203.98 680.3 1203.98 682.1C1203.98 682.7 1202.78 683 1200.38 683C1197.98 683.6 1195.28 683.9 1192.28 683.9C1189.88 683.9 1187.18 683.9 1184.18 683.9C1181.18 683.9 1179.38 683.9 1178.78 683.9C1160.18 683.9 1141.88 681.2 1123.88 675.8C1105.88 670.4 1089.08 662.9 1073.48 653.3C1058.48 643.1 1044.98 630.8 1032.98 616.4C1020.98 602 1011.98 585.5 1005.98 566.9C993.977 530.3 987.077 494.6 985.277 459.8C983.477 425 984.977 390.8 989.777 357.2C992.177 338 996.677 316.4 1003.28 292.4C1010.48 267.8 1019.78 242.9 1031.18 217.7C1043.18 192.5 1057.88 167.6 1075.28 143C1093.28 118.4 1114.58 95.9 1139.18 75.5C1164.98 53.9 1193.48 39.5 1224.68 32.3C1256.48 25.1 1286.78 23.9 1315.58 28.6999C1344.38 33.5 1369.88 43.7 1392.08 59.3C1414.28 74.3 1428.98 93.5 1436.18 116.9C1436.78 118.1 1437.38 120.8 1437.98 125C1438.58 128.6 1438.28 131 1437.08 132.2C1436.48 132.8 1435.58 131.3 1434.38 127.7C1433.18 124.1 1431.98 121.7 1430.78 120.5C1405.58 86.3 1377.08 64.7 1345.28 55.7C1313.48 46.1 1281.98 45.2 1250.78 53C1219.58 60.2 1190.18 74 1162.58 94.4C1134.98 114.2 1113.08 136.4 1096.88 161C1068.68 203.6 1047.08 248.9 1032.08 296.9C1017.68 344.9 1011.08 394.4 1012.28 445.4C1012.88 468.8 1015.28 493.4 1019.48 519.2C1024.28 545 1033.28 569.6 1046.48 593C1059.68 617 1077.68 637.1 1100.48 653.3C1123.88 668.9 1148.18 677.3 1173.38 678.5ZM1043.78 340.1C1048.58 308.3 1056.08 277.4 1066.28 247.4C1077.08 217.4 1090.88 190.1 1107.68 165.5C1125.08 140.3 1146.38 118.7 1171.58 100.7C1196.78 82.7 1226.48 70.1 1260.68 62.9C1272.68 60.5 1286.18 59.6 1301.18 60.2C1316.18 60.2 1331.18 62.9 1346.18 68.3C1361.18 73.1 1374.98 80.6 1387.58 90.8C1400.78 101 1411.58 115.1 1419.98 133.1C1427.78 150.5 1430.48 167.6 1428.08 184.4C1425.68 201.2 1420.58 216.5 1412.78 230.3C1404.98 243.5 1395.38 254.6 1383.98 263.6C1372.58 272.6 1361.48 277.7 1350.68 278.9C1344.08 280.1 1340.48 280.1 1339.88 278.9C1339.28 277.1 1342.58 275 1349.78 272.6C1361.18 269 1372.58 260 1383.98 245.6C1395.98 230.6 1403.18 211.7 1405.58 188.9C1406.78 177.5 1405.28 166.4 1401.08 155.6C1396.88 144.2 1390.88 134.3 1383.08 125.9C1375.28 117.5 1365.98 110.3 1355.18 104.3C1344.38 98.3 1332.98 94.4 1320.98 92.6C1295.18 89 1271.48 90.8 1249.88 98C1228.28 105.2 1209.38 114.5 1193.18 125.9C1177.58 136.7 1164.68 147.5 1154.48 158.3C1144.88 169.1 1138.88 176.3 1136.48 179.9C1117.88 203.3 1101.68 228.8 1087.88 256.4C1074.08 283.4 1062.68 311.9 1053.68 341.9C1053.68 342.5 1053.08 344.6 1051.88 348.2C1051.28 351.8 1050.38 355.7 1049.18 359.9C1048.58 363.5 1047.68 367.1 1046.48 370.7C1045.28 373.7 1044.38 375.2 1043.78 375.2C1042.58 375.2 1041.98 373.4 1041.98 369.8C1041.98 366.2 1041.98 362.6 1041.98 359C1041.98 354.8 1042.28 350.9 1042.88 347.3C1043.48 343.7 1043.78 341.3 1043.78 340.1ZM1649.84 697.4C1645.64 701.6 1642.94 703.4 1641.74 702.8C1640.54 702.2 1640.54 700.7 1641.74 698.3C1642.94 696.5 1643.84 695 1644.44 693.8C1649.24 688.4 1652.84 684.5 1655.24 682.1C1658.24 679.1 1661.54 676.1 1665.14 673.1C1650.74 653.9 1640.24 633.5 1633.64 611.9C1627.04 589.7 1623.14 566.9 1621.94 543.5C1620.74 520.1 1621.64 496.4 1624.64 472.4C1628.24 448.4 1632.74 425 1638.14 402.2C1648.94 357.2 1661.24 313.4 1675.04 270.8C1689.44 227.6 1701.44 186.2 1711.04 146.6C1691.84 150.2 1674.44 155 1658.84 161C1643.84 167 1633.94 173.6 1629.14 180.8C1627.34 183.8 1625.54 185 1623.74 184.4C1622.54 183.8 1623.14 181.1 1625.54 176.3C1630.34 166.1 1639.04 157.1 1651.64 149.3C1664.24 140.9 1678.64 134 1694.84 128.6C1711.04 123.2 1728.44 119 1747.04 116C1766.24 113 1784.54 111.8 1801.94 112.4C1840.94 113.6 1873.34 121.1 1899.14 134.9C1925.54 148.7 1939.04 169.1 1939.64 196.1C1939.64 212.9 1933.64 229.7 1921.64 246.5C1910.24 263.3 1896.14 279.2 1879.34 294.2C1863.14 308.6 1845.74 321.8 1827.14 333.8C1808.54 345.2 1792.64 354.2 1779.44 360.8L1775.84 373.4C1784.84 365.6 1796.84 359.3 1811.84 354.5C1826.84 349.7 1842.44 347.3 1858.64 347.3C1875.44 347.3 1891.64 350.3 1907.24 356.3C1923.44 361.7 1937.54 370.7 1949.54 383.3C1965.74 401.3 1975.94 422 1980.14 445.4C1984.94 468.2 1983.74 490.7 1976.54 512.9C1969.94 535.1 1958.84 553.4 1943.24 567.8C1927.64 581.6 1911.74 592.1 1895.54 599.3C1893.74 600.5 1890.44 602 1885.64 603.8C1880.84 605 1877.84 604.7 1876.64 602.9C1876.04 601.7 1877.54 599.6 1881.14 596.6C1884.74 593 1887.44 590.6 1889.24 589.4C1905.44 578.6 1919.24 563.9 1930.64 545.3C1942.04 526.7 1948.94 507.5 1951.34 487.7C1954.34 467.3 1952.24 447.8 1945.04 429.2C1937.84 410.6 1923.74 396.2 1902.74 386C1894.34 381.8 1883.24 378.8 1869.44 377C1855.64 374.6 1841.84 374 1828.04 375.2C1814.24 375.8 1801.34 378.8 1789.34 384.2C1777.94 389.6 1769.84 398 1765.04 409.4C1775.84 402.8 1788.14 397.7 1801.94 394.1C1815.74 390.5 1829.54 389 1843.34 389.6C1857.74 389.6 1871.24 392.3 1883.84 397.7C1896.44 402.5 1906.94 410 1915.34 420.2C1925.54 432.8 1931.24 446 1932.44 459.8C1934.24 473.6 1932.74 487.1 1927.94 500.3C1923.74 513.5 1916.54 525.8 1906.34 537.2C1896.74 548.6 1885.64 558.2 1873.04 566C1856.24 576.2 1837.64 586.4 1817.24 596.6C1796.84 606.2 1776.44 616.4 1756.04 627.2C1735.64 637.4 1716.14 648.5 1697.54 660.5C1678.94 671.9 1663.04 684.2 1649.84 697.4ZM1757.84 440C1747.04 467 1738.04 494.3 1730.84 521.9C1724.24 548.9 1716.74 573.8 1708.34 596.6C1705.34 604.4 1703.24 608 1702.04 607.4C1700.24 606.8 1699.34 605.3 1699.34 602.9C1699.34 599.9 1699.34 596.9 1699.34 593.9C1701.14 548.3 1707.74 503.3 1719.14 458.9C1730.54 413.9 1742.84 368.6 1756.04 323C1764.44 294.8 1772.24 266 1779.44 236.6C1787.24 206.6 1791.74 174.5 1792.94 140.3H1777.64C1778.24 156.5 1777.64 172.7 1775.84 188.9C1774.64 204.5 1772.54 218 1769.54 229.4C1761.14 261.8 1750.94 295.4 1738.94 330.2C1726.94 365 1714.34 398 1701.14 429.2C1700.54 430.4 1699.04 433.4 1696.64 438.2C1694.84 442.4 1693.04 444.2 1691.24 443.6C1690.04 443 1689.14 440.3 1688.54 435.5C1688.54 430.7 1688.84 427.4 1689.44 425.6C1690.04 418.4 1691.24 409.4 1693.04 398.6C1695.44 387.8 1697.54 376.7 1699.34 365.3C1701.74 353.9 1704.14 342.8 1706.54 332C1709.54 321.2 1712.24 311.9 1714.64 304.1C1715.24 301.1 1716.74 294.2 1719.14 283.4C1722.14 272.6 1725.14 259.7 1728.14 244.7C1731.14 229.1 1734.14 212.6 1737.14 195.2C1740.74 177.2 1743.74 159.8 1746.14 143C1741.34 143 1737.74 143.3 1735.34 143.9C1732.34 166.1 1727.84 188.6 1721.84 211.4C1716.44 234.2 1710.14 257.3 1702.94 280.7C1695.74 304.1 1688.54 327.5 1681.34 350.9C1674.14 373.7 1667.84 396.8 1662.44 420.2C1657.64 440 1654.04 460.7 1651.64 482.3C1649.24 503.9 1648.04 525.5 1648.04 547.1C1648.04 568.1 1649.84 588.8 1653.44 609.2C1657.04 629.6 1662.74 649.1 1670.54 667.7L1678.64 659.6C1676.84 655.4 1675.04 650.3 1673.24 644.3C1671.44 638.3 1669.94 631.1 1668.74 622.7C1667.54 616.1 1666.64 607.7 1666.04 597.5C1666.04 587.3 1666.34 577.4 1666.94 567.8C1667.54 558.2 1668.44 550.1 1669.64 543.5C1670.84 536.9 1672.64 533.6 1675.04 533.6C1675.64 533.6 1676.24 535.1 1676.84 538.1C1678.04 541.1 1678.94 544.7 1679.54 548.9C1680.14 553.1 1680.74 557 1681.34 560.6C1681.94 564.2 1682.24 566.9 1682.24 568.7C1682.84 574.1 1683.44 580.1 1684.04 586.7C1684.64 593.3 1685.24 600.2 1685.84 607.4C1687.04 614.6 1687.94 621.8 1688.54 629C1689.74 635.6 1691.24 641.3 1693.04 646.1C1706.84 633.5 1721.54 622.4 1737.14 612.8C1752.74 602.6 1768.04 593.3 1783.04 584.9C1798.64 576.5 1813.64 568.4 1828.04 560.6C1842.44 552.8 1855.04 545 1865.84 537.2C1884.44 524.6 1896.44 508.7 1901.84 489.5C1907.24 469.7 1903.94 452 1891.94 436.4C1884.14 426.2 1873.34 419 1859.54 414.8C1846.34 410.6 1832.54 409.1 1818.14 410.3C1804.34 410.9 1791.74 413.9 1780.34 419.3C1768.94 424.7 1761.44 431.6 1757.84 440ZM1900.94 302.3C1902.14 302.9 1900.64 306.2 1896.44 312.2C1892.84 317.6 1890.44 321.5 1889.24 323.9C1909.64 320.9 1927.64 313.7 1943.24 302.3C1959.44 290.9 1972.34 277.4 1981.94 261.8C1991.54 245.6 1997.54 228.2 1999.94 209.6C2002.34 190.4 2000.54 171.2 1994.54 152C1988.54 132.8 1978.64 116.6 1964.84 103.4C1951.04 90.2 1935.14 79.4 1917.14 71C1899.14 62.6 1879.64 56.6 1858.64 53C1837.64 49.4 1816.64 47.9 1795.64 48.5C1774.64 48.5 1754.54 50.3 1735.34 53.8999C1716.14 57.5 1699.34 62.6 1684.94 69.2C1681.94 70.4 1680.14 71 1679.54 71C1679.54 71 1679.24 70.7 1678.64 70.1C1678.04 68.3 1679.54 66.2 1683.14 63.8C1698.14 50.6 1717.04 40.7 1739.84 34.1C1763.24 27.5 1787.54 24.2 1812.74 24.2C1838.54 24.2 1864.34 27.8 1890.14 35C1915.94 41.6 1939.04 52.1 1959.44 66.4999C1980.44 80.2999 1997.54 98.3 2010.74 120.5C2024.54 142.1 2032.04 167.6 2033.24 197C2033.84 215 2031.44 231.5 2026.04 246.5C2020.64 260.9 2013.44 273.8 2004.44 285.2C1995.44 296.6 1984.94 306.5 1972.94 314.9C1961.54 322.7 1949.54 329.3 1936.94 334.7C1956.74 343.7 1973.84 357.8 1988.24 377C2002.64 395.6 2012.84 414.2 2018.84 432.8C2026.04 457.4 2027.54 480.8 2023.34 503C2019.74 525.2 2013.14 545.3 2003.54 563.3C1994.54 581.3 1984.04 596.9 1972.04 610.1C1960.64 622.7 1950.74 631.7 1942.34 637.1C1924.94 648.5 1907.24 657.5 1889.24 664.1C1871.24 670.1 1853.54 674.9 1836.14 678.5C1818.74 681.5 1801.94 683.6 1785.74 684.8C1770.14 686 1756.04 686.9 1743.44 687.5C1733.84 688.7 1729.04 688.4 1729.04 686.6C1728.44 685.4 1729.94 684.2 1733.54 683C1737.74 682.4 1741.34 681.8 1744.34 681.2C1767.74 677 1790.84 671.3 1813.64 664.1C1836.44 656.9 1859.54 647.3 1882.94 635.3C1894.34 629.3 1906.04 622.4 1918.04 614.6C1930.64 606.2 1942.04 596.6 1952.24 585.8C1963.04 574.4 1972.04 561.8 1979.24 548C1987.04 534.2 1992.14 518.9 1994.54 502.1C1997.54 481.1 1996.94 460.4 1992.74 440C1989.14 419 1979.24 398.9 1963.04 379.7C1947.44 361.1 1930.94 348.5 1913.54 341.9C1896.74 335.3 1878.44 332.6 1858.64 333.8C1853.84 333.8 1851.44 333.5 1851.44 332.9C1851.44 331.7 1854.74 329.6 1861.34 326.6C1867.94 323.6 1872.14 321.5 1873.94 320.3C1879.34 316.7 1885.04 312.5 1891.04 307.7C1897.04 302.9 1900.34 301.1 1900.94 302.3ZM1911.74 199.7C1911.74 180.5 1901.54 166.7 1881.14 158.3C1860.74 149.3 1832.54 143.3 1796.54 140.3C1800.74 158.9 1803.44 176 1804.64 191.6C1805.84 207.2 1805.54 222.8 1803.74 238.4C1802.54 253.4 1799.84 269.3 1795.64 286.1C1792.04 302.3 1787.84 320.3 1783.04 340.1C1795.64 334.1 1809.44 325.1 1824.44 313.1C1839.44 300.5 1853.24 287.6 1865.84 274.4C1879.04 260.6 1889.84 247.1 1898.24 233.9C1907.24 220.1 1911.74 208.7 1911.74 199.7ZM1787.54 61.9999C1807.94 60.8 1831.04 63.2 1856.84 69.2C1883.24 74.6 1906.94 83.6 1927.94 96.2C1938.74 102.8 1947.74 110.9 1954.94 120.5C1962.14 130.1 1967.54 140.3 1971.14 151.1C1975.34 161.3 1977.74 171.8 1978.34 182.6C1978.94 193.4 1977.74 203.3 1974.74 212.3C1974.14 213.5 1973.54 215.3 1972.94 217.7C1972.34 219.5 1971.44 221.6 1970.24 224C1969.04 225.8 1967.84 227.6 1966.64 229.4C1965.44 230.6 1964.24 230.9 1963.04 230.3C1961.24 230.3 1960.34 228.2 1960.34 224C1960.94 219.8 1961.84 215.3 1963.04 210.5C1966.04 193.7 1964.54 179 1958.54 166.4C1953.14 153.8 1944.74 143.3 1933.34 134.9C1921.94 125.9 1908.74 118.7 1893.74 113.3C1878.74 107.9 1863.14 103.7 1846.94 100.7C1831.34 97.7 1816.04 96.2 1801.04 96.2C1786.04 95.6 1773.14 95.9 1762.34 97.1C1747.34 98.9 1732.34 101.9 1717.34 106.1C1702.94 109.7 1689.44 113.9 1676.84 118.7C1664.24 123.5 1653.44 128.6 1644.44 134C1635.44 139.4 1629.14 144.5 1625.54 149.3C1621.94 154.1 1619.84 155.6 1619.24 153.8C1619.24 152 1619.84 149.3 1621.04 145.7C1625.24 133.7 1633.04 122.9 1644.44 113.3C1655.84 103.1 1669.04 94.4 1684.04 87.1999C1699.04 80 1715.54 74.3 1733.54 70.1C1751.54 65.9 1769.54 63.2 1787.54 61.9999ZM1743.44 668.6C1723.64 676.4 1707.74 683.3 1695.74 689.3C1684.34 695.3 1672.94 703.1 1661.54 712.7C1660.34 713.3 1659.14 714.5 1657.94 716.3C1656.74 718.1 1655.54 718.7 1654.34 718.1C1653.14 717.5 1653.14 715.7 1654.34 712.7C1655.54 710.3 1656.74 708.5 1657.94 707.3C1663.94 698.9 1671.74 690.8 1681.34 683C1690.94 674.6 1704.44 666.8 1721.84 659.6C1727.84 657.2 1734.44 654.8 1741.64 652.4C1749.44 649.4 1756.64 647 1763.24 645.2C1770.44 643.4 1776.14 642.2 1780.34 641.6C1785.14 641 1788.14 641.6 1789.34 643.4C1789.94 644.6 1788.14 646.4 1783.94 648.8C1779.74 651.2 1774.94 653.9 1769.54 656.9C1764.14 659.3 1758.74 661.7 1753.34 664.1C1748.54 666.5 1745.24 668 1743.44 668.6ZM2236.52 545.3C2259.32 523.7 2279.72 502.1 2297.72 480.5C2316.32 458.9 2333.42 434.9 2349.02 408.5C2365.22 381.5 2379.92 350.9 2393.12 316.7C2406.92 281.9 2420.42 241.1 2433.62 194.3C2440.82 167.3 2446.82 141.2 2451.62 116C2457.02 90.8 2459.12 66.2 2457.92 42.2C2457.92 37.4 2458.22 35 2458.82 35C2460.02 35 2460.92 35.9 2461.52 37.7C2462.12 39.5 2462.72 41 2463.32 42.2C2472.32 70.4 2475.32 100.1 2472.32 131.3C2469.32 161.9 2463.62 193.4 2455.22 225.8C2446.82 257.6 2436.92 290 2425.52 323C2414.72 356 2405.42 389 2397.62 422C2392.82 442.4 2389.22 464 2386.82 486.8C2384.42 509.6 2383.52 532.4 2384.12 555.2C2385.32 577.4 2388.32 599.3 2393.12 620.9C2397.92 642.5 2405.42 662.6 2415.62 681.2C2416.22 681.8 2416.52 682.7 2416.52 683.9V685.7C2414.72 685.7 2413.52 685.4 2412.92 684.8L2411.12 683C2387.72 657.8 2371.82 626.9 2363.42 590.3C2355.02 600.5 2346.32 610.4 2337.32 620C2328.92 629.6 2316.92 639.5 2301.32 649.7C2276.12 666.5 2247.92 677.9 2216.72 683.9C2186.12 690.5 2155.52 686.6 2124.92 672.2C2106.92 663.2 2093.12 651.5 2083.52 637.1C2073.92 622.1 2066.72 606.2 2061.92 589.4C2057.72 572 2055.02 554.6 2053.82 537.2C2053.22 519.2 2052.62 503 2052.02 488.6C2050.82 460.4 2052.02 433.1 2055.62 406.7C2059.82 380.3 2065.22 355.7 2071.82 332.9C2078.42 309.5 2085.92 288.5 2094.32 269.9C2102.72 251.3 2110.82 235.7 2118.62 223.1C2119.22 221.9 2120.12 220.7 2121.32 219.5C2123.12 217.7 2124.32 216.8 2124.92 216.8C2126.12 217.4 2126.12 219.2 2124.92 222.2C2124.32 224.6 2123.72 226.4 2123.12 227.6C2114.12 254.6 2106.02 282.2 2098.82 310.4C2091.62 338.6 2086.22 367.1 2082.62 395.9C2079.02 424.7 2077.52 453.8 2078.12 483.2C2079.32 512 2083.52 541.1 2090.72 570.5C2093.72 582.5 2098.22 595.1 2104.22 608.3C2110.22 620.9 2120.12 632.3 2133.92 642.5C2141.72 648.5 2149.82 652.7 2158.22 655.1C2166.62 657.5 2174.72 659 2182.52 659.6C2190.32 659.6 2197.52 659 2204.12 657.8C2211.32 656.6 2217.92 655.1 2223.92 653.3C2250.92 646.7 2274.02 634.7 2293.22 617.3C2313.02 599.9 2329.82 582.2 2343.62 564.2C2349.02 558.2 2353.52 551.3 2357.12 543.5C2356.52 532.1 2356.82 518.9 2358.02 503.9C2359.22 488.9 2360.72 474.8 2362.52 461.6C2364.32 448.4 2365.82 437.3 2367.02 428.3C2368.22 419.3 2368.52 415.1 2367.92 415.7C2354.12 446.3 2337.62 473.3 2318.42 496.7C2299.82 519.5 2283.62 538.1 2269.82 552.5C2260.82 562.1 2250.62 570.5 2239.22 577.7C2228.42 584.9 2217.62 590 2206.82 593C2196.02 596 2186.12 596 2177.12 593C2168.12 590 2161.52 583.1 2157.32 572.3C2148.92 547.7 2142.92 520.7 2139.32 491.3C2135.72 461.3 2135.42 431 2138.42 400.4C2145.02 339.2 2159.42 278.9 2181.62 219.5C2204.42 160.1 2236.22 105.8 2277.02 56.6C2279.42 53.6 2281.52 51.5 2283.32 50.3C2285.72 49.1 2285.12 51.5 2281.52 57.5C2268.32 77.9 2255.42 101.3 2242.82 127.7C2230.82 154.1 2219.72 182 2209.52 211.4C2199.92 240.2 2191.22 269.9 2183.42 300.5C2176.22 331.1 2171.12 360.8 2168.12 389.6C2165.12 418.4 2163.92 446.9 2164.52 475.1C2165.12 502.7 2169.62 527.3 2178.02 548.9C2181.02 556.7 2184.92 561.8 2189.72 564.2C2195.12 566 2200.52 566.3 2205.92 565.1C2211.32 563.3 2216.72 560.6 2222.12 557C2227.52 552.8 2232.32 548.9 2236.52 545.3ZM2250.92 617.3C2244.32 620.9 2237.42 624.5 2230.22 628.1C2223.02 631.7 2215.52 634.7 2207.72 637.1C2200.52 638.9 2192.72 639.8 2184.32 639.8C2175.92 639.8 2167.22 638.3 2158.22 635.3C2140.82 629.3 2128.22 619.4 2120.42 605.6C2113.22 591.2 2107.52 577.4 2103.32 564.2C2093.72 535.4 2089.22 506.9 2089.82 478.7C2091.02 449.9 2093.42 419.3 2097.02 386.9C2099.42 364.1 2104.22 339.2 2111.42 312.2C2119.22 284.6 2128.82 257.3 2140.22 230.3C2151.62 203.3 2164.22 178.1 2178.02 154.7C2192.42 131.3 2207.42 112.1 2223.02 97.1C2224.22 95.9 2226.32 93.8 2229.32 90.8C2232.92 87.2 2235.32 86 2236.52 87.1999C2237.12 87.8 2234.42 92.9 2228.42 102.5C2222.42 112.1 2215.22 125 2206.82 141.2C2198.42 157.4 2190.02 176 2181.62 197C2173.22 217.4 2164.82 239.6 2156.42 263.6C2148.62 287 2142.02 311.3 2136.62 336.5C2131.22 361.1 2127.62 385.1 2125.82 408.5C2124.02 431.9 2123.12 453.5 2123.12 473.3C2123.72 492.5 2124.62 509 2125.82 522.8C2127.62 536 2129.12 545 2130.32 549.8C2133.32 561.8 2137.52 574.4 2142.92 587.6C2148.92 600.2 2157.02 608.9 2167.22 613.7C2177.42 618.5 2190.02 620 2205.02 618.2C2220.62 616.4 2234.42 612.2 2246.42 605.6C2247.02 605 2248.82 603.8 2251.82 602C2254.82 600.2 2257.82 598.4 2260.82 596.6C2264.42 594.2 2267.42 592.4 2269.82 591.2C2272.82 589.4 2274.62 588.8 2275.22 589.4C2275.82 590.6 2275.52 592.4 2274.32 594.8C2273.12 597.2 2271.02 599.9 2268.02 602.9C2265.62 605.9 2262.62 608.9 2259.02 611.9C2256.02 614.3 2253.32 616.1 2250.92 617.3ZM2494.82 430.1C2487.62 458.9 2478.92 488.3 2468.72 518.3C2459.12 548.3 2450.72 574.4 2443.52 596.6C2442.32 599.6 2441.12 602.6 2439.92 605.6C2438.72 608.6 2437.52 609.8 2436.32 609.2C2434.52 608.6 2433.62 606.8 2433.62 603.8C2433.62 600.2 2433.62 596.9 2433.62 593.9C2436.02 548.9 2442.62 504.2 2453.42 459.8C2464.82 415.4 2477.42 370.7 2491.22 325.7C2499.62 297.5 2507.42 269 2514.62 240.2C2522.42 210.8 2526.92 179.3 2528.12 145.7C2528.12 141.5 2528.72 139.4 2529.92 139.4C2531.72 139.4 2533.22 141.5 2534.42 145.7C2541.02 161.9 2543.42 182.9 2541.62 208.7C2539.82 233.9 2535.92 260.3 2529.92 287.9C2524.52 315.5 2518.22 342.2 2511.02 368C2503.82 393.8 2498.42 414.5 2494.82 430.1ZM2504.72 233C2496.32 265.4 2487.32 298.7 2477.72 332.9C2468.12 367.1 2454.62 399.5 2437.22 430.1C2436.02 431.9 2433.92 435.2 2430.92 440C2428.52 444.2 2426.42 446 2424.62 445.4C2423.42 445.4 2422.82 443 2422.82 438.2C2422.82 433.4 2423.12 429.5 2423.72 426.5C2424.32 419.3 2425.52 410.6 2427.32 400.4C2429.12 389.6 2431.22 378.8 2433.62 368C2436.62 356.6 2439.32 345.8 2441.72 335.6C2444.72 324.8 2447.42 315.8 2449.82 308.6C2451.02 305 2452.82 298.1 2455.22 287.9C2458.22 277.1 2461.22 264.5 2464.22 250.1C2467.22 235.7 2470.22 220.1 2473.22 203.3C2476.22 185.9 2478.62 168.8 2480.42 152C2482.82 135.2 2484.32 119.3 2484.92 104.3C2485.52 89.3 2484.92 76.4 2483.12 65.6C2481.92 60.2 2482.22 57.5 2484.02 57.5C2485.22 57.5 2486.42 58.1 2487.62 59.3C2488.82 60.5 2489.72 61.7 2490.32 62.9C2497.52 73.1 2502.62 85.4 2505.62 99.8C2509.22 114.2 2511.32 129.2 2511.92 144.8C2513.12 160.4 2512.82 176 2511.02 191.6C2509.82 207.2 2507.72 221 2504.72 233ZM2423.72 621.8C2425.52 633.8 2427.32 644.6 2429.12 654.2C2431.52 663.8 2435.42 673.1 2440.82 682.1C2441.42 682.7 2441.72 683.6 2441.72 684.8C2442.32 686.6 2442.02 687.5 2440.82 687.5C2437.82 687.5 2434.82 686 2431.82 683C2425.22 675.2 2419.82 667.7 2415.62 660.5C2411.42 653.3 2407.52 640.7 2403.92 622.7C2402.72 615.5 2401.82 606.8 2401.22 596.6C2400.62 586.4 2400.62 576.5 2401.22 566.9C2401.82 557.3 2402.72 549.5 2403.92 543.5C2405.72 536.9 2407.82 533.6 2410.22 533.6C2410.82 533.6 2411.42 535.4 2412.02 539C2413.22 542 2414.12 545.6 2414.72 549.8C2415.92 553.4 2416.52 557.3 2416.52 561.5C2417.12 565.1 2417.42 567.5 2417.42 568.7C2419.22 587.3 2421.32 605 2423.72 621.8ZM2634.03 683C2634.03 686 2634.03 687.5 2634.03 687.5C2631.63 687.5 2629.83 686 2628.63 683C2620.23 661.4 2616.63 638.3 2617.83 613.7C2619.03 589.1 2623.23 563.9 2630.43 538.1C2637.63 512.3 2647.23 486.5 2659.23 460.7C2671.83 434.3 2685.33 408.8 2699.73 384.2C2683.53 373.4 2670.03 359.9 2659.23 343.7C2649.03 326.9 2640.03 309.2 2632.23 290.6C2622.63 268.4 2614.53 245.9 2607.93 223.1C2601.33 200.3 2595.03 178.1 2589.03 156.5C2583.03 134.9 2576.73 114.5 2570.13 95.2999C2563.53 75.5 2555.73 57.8 2546.73 42.2C2546.73 39.8 2547.03 38.9 2547.63 39.5C2566.23 52.7 2580.63 68.9 2590.83 88.1C2601.63 107.3 2610.33 128 2616.93 150.2C2624.13 172.4 2630.73 195.5 2636.73 219.5C2642.73 242.9 2650.53 265.4 2660.13 287C2666.73 302 2673.93 316.1 2681.73 329.3C2690.13 341.9 2700.33 353.9 2712.33 365.3L2724.03 346.4C2719.83 341 2716.53 336.2 2714.13 332C2712.33 327.2 2712.33 324.2 2714.13 323C2715.33 323 2717.43 324.2 2720.43 326.6C2723.43 328.4 2726.73 331.4 2730.33 335.6C2736.33 329 2740.83 322.4 2743.83 315.8C2733.03 296 2723.43 275.3 2715.03 253.7C2707.23 232.1 2699.73 209.9 2692.53 187.1C2686.53 167.9 2680.23 149.3 2673.63 131.3C2667.03 113.3 2657.73 93.8 2645.73 72.8C2645.13 71.6 2644.23 70.7 2643.03 70.1C2642.43 68.9 2642.43 68 2643.03 67.4C2644.23 66.2 2646.33 66.5 2649.33 68.3C2661.93 73.7 2673.03 83.9 2682.63 98.9C2692.83 113.3 2701.83 129.2 2709.63 146.6C2717.43 164 2724.03 181.4 2729.43 198.8C2735.43 215.6 2740.23 229.1 2743.83 239.3L2762.73 288.8C2796.33 239.6 2828.43 191.6 2859.03 144.8C2890.23 97.9999 2913.63 52.1 2929.23 7.09996C2930.43 4.09996 2931.03 2.59996 2931.03 2.59996C2932.23 1.39998 2932.83 2.29998 2932.83 5.29998C2933.43 7.69999 2933.73 9.19998 2933.73 9.79998C2930.73 44 2921.73 77.6 2906.73 110.6C2891.73 143.6 2873.73 176.6 2852.73 209.6C2832.33 242 2810.13 274.7 2786.13 307.7C2762.13 340.7 2739.93 374 2719.53 407.6C2706.33 429.2 2694.03 452 2682.63 476C2671.23 500 2661.33 524.3 2652.93 548.9C2645.13 572.9 2639.43 596.6 2635.83 620C2632.23 642.8 2631.63 663.8 2634.03 683ZM2812.23 447.2C2803.23 461.6 2793.63 476.6 2783.43 492.2C2773.23 507.2 2762.73 521.9 2751.93 536.3C2741.73 550.7 2731.83 564.5 2722.23 577.7C2712.63 590.9 2703.93 602.9 2696.13 613.7C2693.13 617.9 2690.43 621.2 2688.03 623.6C2685.63 625.4 2684.13 626 2683.53 625.4C2682.33 625.4 2682.33 623.6 2683.53 620C2684.73 616.4 2685.93 613.1 2687.13 610.1C2706.33 560.9 2730.33 513.5 2759.13 467.9C2788.53 422.3 2818.53 376.4 2849.13 330.2C2867.73 301.4 2886.63 272.6 2905.83 243.8C2925.03 214.4 2941.83 180.8 2956.23 143C2957.43 140 2957.73 138.2 2957.13 137.6C2957.13 137 2957.73 136.7 2958.93 136.7C2960.13 137.3 2960.73 138.5 2960.73 140.3C2960.73 142.1 2960.73 143.9 2960.73 145.7C2960.73 158.9 2958.03 173.9 2952.63 190.7C2947.23 207.5 2940.03 225.5 2931.03 244.7C2922.03 263.3 2912.13 282.5 2901.33 302.3C2890.53 321.5 2879.43 340.1 2868.03 358.1C2857.23 376.1 2846.73 392.9 2836.53 408.5C2826.93 423.5 2818.83 436.4 2812.23 447.2ZM2897.73 232.1C2876.73 264.5 2853.63 298.1 2828.43 332.9C2803.23 367.7 2778.33 399.8 2753.73 429.2C2752.53 430.4 2749.83 433.4 2745.63 438.2C2741.43 442.4 2738.43 443.9 2736.63 442.7C2735.43 441.5 2735.73 438.5 2737.53 433.7C2739.93 428.3 2741.73 424.7 2742.93 422.9C2747.13 414.5 2752.23 404.9 2758.23 394.1C2764.23 382.7 2770.53 371.3 2777.13 359.9C2783.73 348.5 2790.33 337.4 2796.93 326.6C2804.13 315.8 2810.43 306.5 2815.83 298.7C2818.23 295.1 2823.03 287.6 2830.23 276.2C2837.43 264.2 2845.53 250.4 2854.53 234.8C2863.53 218.6 2873.13 201.2 2883.33 182.6C2893.53 164 2902.83 146 2911.23 128.6C2919.63 110.6 2926.83 94.1 2932.83 79.1C2938.83 63.5 2942.13 51.2 2942.73 42.2C2943.93 36.2 2944.83 33.1999 2945.43 33.1999C2946.63 33.1999 2947.53 34.7 2948.13 37.7C2948.73 40.1 2949.33 41.9 2949.93 43.1C2952.33 55.7 2952.33 70.3999 2949.93 87.1999C2947.53 104 2943.63 121.4 2938.23 139.4C2933.43 156.8 2927.13 173.9 2919.33 190.7C2912.13 206.9 2904.93 220.7 2897.73 232.1ZM2661.03 129.5C2667.63 151.7 2673.93 175.4 2679.93 200.6C2686.53 225.2 2691.93 249.2 2696.13 272.6C2696.73 273.8 2696.73 275.9 2696.13 278.9C2696.13 281.3 2695.53 283.1 2694.33 284.3C2693.13 284.9 2691.33 284 2688.93 281.6C2686.53 279.2 2685.03 277.4 2684.43 276.2C2681.43 272 2678.13 266.6 2674.53 260C2670.93 253.4 2667.63 246.5 2664.63 239.3C2661.63 232.1 2658.63 224.9 2655.63 217.7C2653.23 210.5 2651.13 204.2 2649.33 198.8C2647.53 192.8 2643.63 182.6 2637.63 168.2C2632.23 153.2 2625.63 137.6 2617.83 121.4C2610.63 105.2 2602.83 89.9 2594.43 75.5C2586.63 61.1 2579.43 51.2 2572.83 45.8C2569.23 42.2 2568.03 40.4 2569.23 40.4C2569.83 39.8 2571.03 39.8 2572.83 40.4C2574.63 41 2576.13 41.6 2577.33 42.2C2586.93 45.2 2596.23 50 2605.23 56.6C2614.83 63.2 2623.23 70.7 2630.43 79.1C2638.23 87.5 2644.53 96.2 2649.33 105.2C2654.73 113.6 2658.63 121.7 2661.03 129.5ZM2666.43 636.2C2664.03 647.6 2662.23 657.8 2661.03 666.8C2660.43 675.2 2660.13 682.7 2660.13 689.3C2660.13 690.5 2660.13 692 2660.13 693.8C2660.13 695.6 2659.23 696.5 2657.43 696.5C2656.23 696.5 2654.73 695.6 2652.93 693.8C2651.73 692.6 2650.83 691.1 2650.23 689.3C2649.03 686.3 2647.83 683.3 2646.63 680.3C2645.43 677.3 2644.53 674 2643.93 670.4C2643.33 666.2 2643.33 661.1 2643.93 655.1C2644.53 648.5 2645.73 640.4 2647.53 630.8C2649.33 623 2652.03 613.4 2655.63 602C2659.23 590.6 2663.13 579.8 2667.33 569.6C2671.53 558.8 2675.43 550.1 2679.03 543.5C2683.23 536.9 2686.53 534.2 2688.93 535.4C2689.53 536 2689.53 538.1 2688.93 541.7C2688.93 545.3 2688.33 549.5 2687.13 554.3C2685.93 558.5 2684.73 562.7 2683.53 566.9C2682.33 571.1 2681.43 574.1 2680.83 575.9C2677.83 586.1 2675.13 596.3 2672.73 606.5C2670.93 616.1 2668.83 626 2666.43 636.2ZM3195.54 46.7C3207.54 46.7 3221.34 49.1 3236.94 53.8999C3252.54 58.1 3265.14 65.3 3274.74 75.5C3281.34 81.5 3280.44 83.3 3272.04 80.9C3263.64 79.7 3254.94 77.9 3245.94 75.5C3237.54 72.5 3228.24 71 3218.04 71C3180.84 70.4 3153.84 81.2 3137.04 103.4C3120.24 125 3110.64 152.6 3108.24 186.2C3106.44 209.6 3106.74 233 3109.14 256.4C3112.14 279.2 3115.44 302 3119.04 324.8C3122.64 347.6 3125.64 370.4 3128.04 393.2C3131.04 416 3131.34 439.1 3128.94 462.5C3128.34 469.1 3127.44 473 3126.24 474.2C3125.64 475.4 3124.74 475.1 3123.54 473.3C3122.94 471.5 3122.04 469.1 3120.84 466.1C3120.24 462.5 3119.64 459.5 3119.04 457.1C3115.44 433.1 3110.94 409.1 3105.54 385.1C3100.14 360.5 3095.04 335.9 3090.24 311.3C3085.44 286.7 3081.54 262.1 3078.54 237.5C3076.14 212.9 3076.14 188 3078.54 162.8C3080.34 146.6 3084.24 131.6 3090.24 117.8C3096.24 103.4 3104.04 91.1 3113.64 80.9C3123.84 70.1 3135.84 61.7 3149.64 55.7C3163.44 49.7 3178.74 46.7 3195.54 46.7ZM3035.34 165.5C3037.14 149.3 3041.34 133.1 3047.94 116.9C3054.54 100.1 3063.24 85.1 3074.04 71.9C3085.44 58.1 3098.94 47.3 3114.54 39.5C3130.74 31.1 3148.74 26.9 3168.54 26.9C3169.14 26.9 3170.64 27.2 3173.04 27.8C3176.04 27.8 3178.44 28.1 3180.24 28.6999C3182.64 29.3 3183.54 29.9 3182.94 30.5C3182.94 31.1 3180.84 31.7 3176.64 32.3C3160.44 35.3 3145.44 40.7 3131.64 48.5C3117.84 56.3 3105.84 65.9 3095.64 77.3C3085.44 88.7 3077.04 101.6 3070.44 116C3064.44 129.8 3060.84 144.2 3059.64 159.2C3057.24 188 3058.44 217.1 3063.24 246.5C3068.04 275.3 3073.44 304.1 3079.44 332.9C3086.04 361.7 3091.44 390.8 3095.64 420.2C3100.44 449 3101.64 477.8 3099.24 506.6C3098.04 518 3095.34 530 3091.14 542.6C3086.94 555.2 3081.24 566.9 3074.04 577.7C3067.44 588.5 3059.04 597.8 3048.84 605.6C3038.64 612.8 3027.24 617.3 3014.64 619.1C3005.04 620.3 3000.84 620 3002.04 618.2C3003.84 615.8 3007.44 613.1 3012.84 610.1C3034.44 598.1 3049.14 584 3056.94 567.8C3065.34 551.6 3070.74 531.5 3073.14 507.5C3075.54 479.9 3074.34 451.7 3069.54 422.9C3065.34 394.1 3060.24 365.3 3054.24 336.5C3048.24 307.7 3042.84 279.2 3038.04 251C3033.84 222.2 3032.94 193.7 3035.34 165.5ZM3011.04 664.1C3036.24 664.1 3057.54 659.6 3074.94 650.6C3092.34 641 3106.74 628.7 3118.14 613.7C3129.54 598.1 3138.24 580.4 3144.24 560.6C3150.24 540.2 3154.14 519.2 3155.94 497.6C3158.34 470.6 3157.74 443.6 3154.14 416.6C3150.54 389.6 3146.34 362.9 3141.54 336.5C3137.34 309.5 3133.44 282.5 3129.84 255.5C3126.24 228.5 3125.64 201.2 3128.04 173.6C3130.44 146 3138.84 124.1 3153.24 107.9C3168.24 91.7 3190.44 83.6 3219.84 83.6C3230.04 83.6 3242.94 85.4 3258.54 89C3274.74 92.6 3287.94 97.7 3298.14 104.3C3308.94 111.5 3308.04 113.6 3295.44 110.6C3288.24 108.8 3278.94 106.7 3267.54 104.3C3256.14 101.9 3247.44 100.7 3241.44 100.7C3218.04 100.7 3197.94 105.8 3181.14 116C3164.34 126.2 3154.74 144.2 3152.34 170C3149.34 197.6 3149.94 225.2 3154.14 252.8C3158.34 279.8 3163.14 307.1 3168.54 334.7C3173.94 362.3 3178.44 389.9 3182.04 417.5C3186.24 445.1 3187.14 472.7 3184.74 500.3C3182.94 523.1 3178.44 545.3 3171.24 566.9C3164.04 588.5 3153.84 608 3140.64 625.4C3127.44 642.8 3110.94 656.9 3091.14 667.7C3071.94 677.9 3049.14 683 3022.74 683C3015.54 683 3006.24 681.8 2994.84 679.4C2983.44 677 2972.04 674 2960.64 670.4C2949.24 666.2 2938.44 661.4 2928.24 656C2918.64 650 2911.44 643.7 2906.64 637.1C2901.24 631.1 2903.04 629.6 2912.04 632.6C2922.24 638 2934.54 644.6 2948.94 652.4C2963.94 660.2 2984.64 664.1 3011.04 664.1ZM3005.64 632.6C3020.64 632.6 3034.44 630.2 3047.04 625.4C3059.64 620.6 3072.54 614.3 3085.74 606.5V609.2C3085.74 614.6 3082.74 620 3076.74 625.4C3071.34 630.2 3064.44 634.7 3056.04 638.9C3047.64 643.1 3038.04 646.4 3027.24 648.8C3017.04 651.2 3006.54 652.4 2995.74 652.4C2991.54 652.4 2985.84 651.8 2978.64 650.6C2971.44 648.8 2963.94 646.7 2956.14 644.3C2948.94 641.3 2942.04 638 2935.44 634.4C2928.84 630.8 2924.34 626.6 2921.94 621.8C2915.34 614.6 2913.24 610.7 2915.64 610.1C2918.04 608.9 2921.34 609.8 2925.54 612.8C2935.14 615.8 2945.94 620 2957.94 625.4C2970.54 630.2 2986.44 632.6 3005.64 632.6Z" fill="#910A67"/>
</g>
<defs>
<filter id="filter0_b_1_4" x="-3.90002" y="-3.19995" width="3322.24" height="726.2" filterUnits="userSpaceOnUse" color-interpolation-filters="sRGB">
<feFlood flood-opacity="0" result="BackgroundImageFix"/>
<feGaussianBlur in="BackgroundImageFix" stdDeviation="2"/>
<feComposite in2="SourceAlpha" operator="in" result="effect1_backgroundBlur_1_4"/>
<feBlend mode="normal" in="SourceGraphic" in2="effect1_backgroundBlur_1_4" result="shape"/>
</filter>
</defs>
</svg>
